<svg xmlns="http://www.w3.org/2000/svg" style="display:none">
<defs>

<!-- ===== GROUP: SITE CONTENT ===== -->
<symbol id="icon-site-content" viewBox="0 0 48 48" fill="none" stroke="currentColor" stroke-width="2.2" stroke-linecap="round" stroke-linejoin="round">
  <path d="M24 14c-4-3-10-4-15-3v24c5-1 11 0 15 3"/>
  <path d="M24 14c4-3 10-4 15-3v24c-5-1-11 0-15 3"/>
  <line x1="24" y1="14" x2="24" y2="38"/>
</symbol>

<symbol id="icon-announcements" viewBox="0 0 48 48" fill="none" stroke="currentColor" stroke-width="2.2" stroke-linecap="round" stroke-linejoin="round">
  <path d="M8 18l16-6v20L8 26Z"/>
  <path d="M24 12v20"/>
  <path d="M24 15c6 0 10 2 10 5v8c0 3-4 5-10 5"/>
  <path d="M30 16l4-3M30 32l4 3"/>
</symbol>

<symbol id="icon-faqs" viewBox="0 0 48 48" fill="none" stroke="currentColor" stroke-width="2.2" stroke-linecap="round" stroke-linejoin="round">
  <path d="M8 12h32v18a2 2 0 0 1-2 2H20l-8 7V32H8Z"/>
  <path d="M20 21c0-3 2-4.5 4-4.5s4 1.2 4 3.6c0 2.4-4 2.9-4 6.4"/>
  <circle cx="24" cy="30.5" r="0.4" fill="currentColor"/>
</symbol>

<!-- ===== GROUP: CAFÉ MENU ===== -->
<symbol id="icon-cafe" viewBox="0 0 48 48" fill="none" stroke="currentColor" stroke-width="2.2" stroke-linecap="round" stroke-linejoin="round">
  <path d="M11 20h20v10a10 10 0 0 1-10 10 10 10 0 0 1-10-10Z"/>
  <path d="M31 22h4a4 4 0 0 1 0 8h-4"/>
  <path d="M16 9c-1 2 2 3 1 5"/>
  <path d="M22 9c-1 2 2 3 1 5"/>
</symbol>

<symbol id="icon-cafe-items" viewBox="0 0 48 48" fill="none" stroke="currentColor" stroke-width="2.2" stroke-linecap="round" stroke-linejoin="round">
  <path d="M22 8 9 21a2 2 0 0 0 0 3l15 15a2 2 0 0 0 3 0l13-13a2 2 0 0 0 .6-1.6L38 9a1 1 0 0 0-1-1l-14.6.4a2 2 0 0 0-1.4.6Z"/>
  <circle cx="31" cy="16" r="2.4" fill="currentColor" stroke="none"/>
</symbol>

<!-- ===== GROUP: MOVEMENT ===== -->
<symbol id="icon-movement" viewBox="0 0 48 48" fill="none" stroke="currentColor" stroke-width="2.2" stroke-linecap="round" stroke-linejoin="round">
  <rect x="6" y="20" width="8" height="8" rx="1.5"/>
  <rect x="34" y="20" width="8" height="8" rx="1.5"/>
  <line x1="14" y1="24" x2="34" y2="24"/>
  <line x1="10" y1="16" x2="10" y2="32"/>
  <line x1="38" y1="16" x2="38" y2="32"/>
</symbol>

<symbol id="icon-classes" viewBox="0 0 48 48" fill="none" stroke="currentColor" stroke-width="2.2" stroke-linecap="round" stroke-linejoin="round">
  <circle cx="19" cy="11" r="4"/>
  <path d="M19 15v10l-7 12"/>
  <path d="M19 25l8 4 4 9"/>
  <path d="M12 20l7-5 8 3 6-4"/>
</symbol>

<symbol id="icon-timetable" viewBox="0 0 48 48" fill="none" stroke="currentColor" stroke-width="2.2" stroke-linecap="round" stroke-linejoin="round">
  <rect x="8" y="12" width="32" height="28" rx="3"/>
  <line x1="8" y1="20" x2="40" y2="20"/>
  <line x1="16" y1="8" x2="16" y2="15"/>
  <line x1="32" y1="8" x2="32" y2="15"/>
  <circle cx="30" cy="30" r="6.5"/>
  <path d="M30 27v3l2 2"/>
</symbol>

<!-- ===== GROUP: FASHION ===== -->
<symbol id="icon-fashion" viewBox="0 0 48 48" fill="none" stroke="currentColor" stroke-width="2.2" stroke-linecap="round" stroke-linejoin="round">
  <path d="M24 12a3.2 3.2 0 1 1 3.2 3.2"/>
  <path d="M24 15.2 8 27h32Z"/>
  <line x1="8" y1="27" x2="8" y2="30"/>
  <line x1="40" y1="27" x2="40" y2="30"/>
</symbol>

<symbol id="icon-layers" viewBox="0 0 48 48" fill="none" stroke="currentColor" stroke-width="2.2" stroke-linecap="round" stroke-linejoin="round">
  <path d="M24 10 8 18l16 8 16-8Z"/>
  <path d="M8 26l16 8 16-8"/>
  <path d="M8 34l16 8 16-8"/>
</symbol>

<!-- ===== GROUP: VENUES & EVENTS ===== -->
<symbol id="icon-venues-events" viewBox="0 0 48 48" fill="none" stroke="currentColor" stroke-width="2.2" stroke-linecap="round" stroke-linejoin="round">
  <path d="M12 40V22a12 12 0 0 1 24 0v18"/>
  <line x1="8" y1="40" x2="40" y2="40"/>
  <path d="M24 6c3 3 3 5 0 8-3-3-3-5 0-8Z" fill="currentColor" stroke="none"/>
</symbol>

<symbol id="icon-spaces-events" viewBox="0 0 48 48" fill="none" stroke="currentColor" stroke-width="2.2" stroke-linecap="round" stroke-linejoin="round">
  <rect x="7" y="9" width="34" height="30" rx="2"/>
  <line x1="24" y1="9" x2="24" y2="39"/>
  <line x1="7" y1="24" x2="41" y2="24"/>
  <path d="M31 13c2.4 2.4 2.4 4 0 6.4-2.4-2.4-2.4-4 0-6.4Z" fill="currentColor" stroke="none"/>
</symbol>

<!-- ===== GROUP: COMMERCE & CONFIG ===== -->
<symbol id="icon-commerce-config" viewBox="0 0 48 48" fill="none" stroke="currentColor" stroke-width="2.2" stroke-linecap="round" stroke-linejoin="round">
  <path d="M8 16a3 3 0 0 1 3-3h26a3 3 0 0 1 3 3v18a3 3 0 0 1-3 3H11a3 3 0 0 1-3-3Z"/>
  <path d="M8 20h32"/>
  <circle cx="34" cy="28" r="2" fill="currentColor" stroke="none"/>
</symbol>

<symbol id="icon-credit-packs" viewBox="0 0 48 48" fill="none" stroke="currentColor" stroke-width="2.2" stroke-linecap="round" stroke-linejoin="round">
  <path d="M11 13a3 3 0 0 0-3 3v3.5c1.9 0 3.5 1.6 3.5 3.5S9.9 26.5 8 26.5V30a3 3 0 0 0 3 3h26a3 3 0 0 0 3-3v-3.5c-1.9 0-3.5-1.6-3.5-3.5s1.6-3.5 3.5-3.5V16a3 3 0 0 0-3-3Z"/>
  <line x1="21" y1="15" x2="21" y2="18" stroke-dasharray="2 3"/>
  <line x1="21" y1="23" x2="21" y2="26" stroke-dasharray="2 3"/>
  <line x1="21" y1="28" x2="21" y2="31" stroke-dasharray="2 3"/>
</symbol>

<symbol id="icon-settings" viewBox="0 0 48 48" fill="none" stroke="currentColor" stroke-width="2.2" stroke-linecap="round" stroke-linejoin="round">
  <circle cx="24" cy="24" r="7"/>
  <circle cx="24" cy="24" r="15" stroke-dasharray="2.4 4.8"/>
  <path d="M24 9v4M24 35v4M39 24h-4M13 24H9M34.5 13.5l-2.8 2.8M16.3 31.7l-2.8 2.8M34.5 34.5l-2.8-2.8M16.3 16.3l-2.8-2.8"/>
</symbol>

</defs>
</svg>
